<svg id="Layer_1" enable-background="new 0 0 512 512" height="512" viewBox="0 0 512 512" width="512" xmlns="http://www.w3.org/2000/svg"><path d="m411.463 0h-225.122c-3.198.101-7.133.998-10.354 4.147l-85.804 81.861c-2.543 2.574-4.675 6.13-4.646 10.954v316.117c0 8.284 6.716 15 15 15h83.86l59.32 78.001c2.837 3.73 7.253 5.92 11.939 5.92h.01c4.69-.003 9.108-2.2 11.942-5.937l59.139-77.985h84.714c8.284 0 15-6.716 15-15v-398.078c.002-8.284-6.714-15-14.998-15zm-240.122 50.042v31.819h-33.351zm84.299 422.156-52.938-69.609h15.313c8.284 0 15-6.716 15-15v-128.528h47.839v127.313c0 8.284 6.716 15 15 15h13.495zm140.823-74.119h-46.964l2.003-2.642c3.441-4.539 4.016-10.635 1.482-15.736-2.534-5.102-7.738-8.328-13.435-8.328h-28.695v-127.312c0-8.284-6.716-15-15-15h-77.839c-8.284 0-15 6.716-15 15v128.528h-30.565c-5.7 0-10.907 3.23-13.439 8.337-2.532 5.106-1.951 11.207 1.5 15.743l1.072 1.409h-46.045v-286.217h70.804c8.284 0 15-6.716 15-15v-66.861h195.122v368.079z"/></svg>